<svg height="100%" width="100%" id="svg" viewBox="0 0 1440 400" xmlns="http://www.w3.org/2000/svg" class="transition duration-300 ease-in-out delay-150"><path d="M 0,400 C 0,400 0,100 0,100 C 58.62991737575534,83.45911949685535 117.25983475151068,66.9182389937107 163,71 C 208.74016524848932,75.0817610062893 241.59057836971266,99.78616352201257 297,114 C 352.40942163028734,128.21383647798743 430.3778517696387,131.937106918239 485,130 C 539.6221482303613,128.062893081761 570.8980145517326,120.46540880503146 625,113 C 679.1019854482674,105.53459119496854 756.0300900234308,98.20125786163521 817,96 C 877.9699099765692,93.79874213836479 922.9816253545442,96.72955974842768 962,99 C 1001.0183746454558,101.27044025157232 1034.043408558392,102.8805031446541 1090,98 C 1145.956591441608,93.1194968553459 1224.844740411888,81.74842767295597 1287,81 C 1349.155259588112,80.25157232704403 1394.577629794056,90.12578616352201 1440,100 C 1440,100 1440,400 1440,400 Z" stroke="none" stroke-width="0" fill="#eb1fc466" class="transition-all duration-300 ease-in-out delay-150"></path><path d="M 0,400 C 0,400 0,200 0,200 C 62.95045011715378,180.8867184609693 125.90090023430756,161.77343692193858 173,171 C 220.09909976569244,180.22656307806142 251.34684917992348,217.79297077321496 305,221 C 358.6531508200765,224.20702922678504 434.7117030459983,193.05467998520163 491,177 C 547.2882969540017,160.94532001479837 583.8063386360834,159.98830928597857 629,173 C 674.1936613639166,186.01169071402143 728.0629424096683,212.9920828708842 781,209 C 833.9370575903317,205.0079171291158 885.9418917252435,170.0433592304846 943,173 C 1000.0581082747565,175.9566407695154 1062.1694906893576,216.83448020717725 1121,229 C 1179.8305093106424,241.16551979282275 1235.3801455173264,224.61871994080653 1288,215 C 1340.6198544826736,205.38128005919347 1390.309927241337,202.69064002959675 1440,200 C 1440,200 1440,400 1440,400 Z" stroke="none" stroke-width="0" fill="#eb1fc488" class="transition-all duration-300 ease-in-out delay-150"></path><path d="M 0,400 C 0,400 0,300 0,300 C 34.11631520532741,317.1839191022321 68.23263041065482,334.3678382044642 132,327 C 195.76736958934518,319.6321617955358 289.1857935627081,287.7125662843753 343,278 C 396.8142064372919,268.2874337156247 411.02419533851275,280.7818966580343 464,293 C 516.9758046614872,305.2181033419657 608.7174250832408,317.1598470834875 669,324 C 729.2825749167592,330.8401529165125 758.1061043285239,332.57871500801576 801,321 C 843.8938956714761,309.42128499198424 900.8581576026638,284.5252928844494 957,279 C 1013.1418423973362,273.4747071155506 1068.4612652608214,287.3201134541867 1128,290 C 1187.5387347391786,292.6798865458133 1251.296781354051,284.1942532988038 1304,284 C 1356.703218645949,283.8057467011962 1398.3516093229746,291.9028733505981 1440,300 C 1440,300 1440,400 1440,400 Z" stroke="none" stroke-width="0" fill="#eb1fc4ff" class="transition-all duration-300 ease-in-out delay-150"></path></svg>